<svg xmlns="http://www.w3.org/2000/svg" width="48" height="48"><path fill-rule="evenodd" d="M28.361 16a1.08 1.08 0 0 1 1.092 1.067v13.866A1.08 1.08 0 0 1 28.36 32a1.08 1.08 0 0 1-1.09-1.067V17.067c0-.59.488-1.067 1.09-1.067m6.549 0A1.08 1.08 0 0 1 36 17.067v13.866A1.08 1.08 0 0 1 34.909 32a1.08 1.08 0 0 1-1.091-1.067V17.067c0-.59.488-1.067 1.09-1.067" clip-rule="evenodd"/><path d="M17.999 32q-1.952 0-3.29-.877t-2.029-2.597q-.68-1.72-.68-4.24 0-2.08.424-3.631.435-1.563 1.237-2.586a5.2 5.2 0 0 1 1.963-1.552Q16.783 16 18.233 16q.601 0 1.17.079.58.078 1.116.225.546.135 1.048.326.166.059.325.124c.381.153.593.55.55.96l-.06.543c-.051.485-.603.749-1.05.554a6.3 6.3 0 0 0-.992-.36 6.5 6.5 0 0 0-.992-.213 6 6 0 0 0-.96-.08q-1.426 0-2.307.698-.87.686-1.271 2.069-.402 1.371-.402 3.418 0 1.878.402 3.103.412 1.225 1.193 1.822.78.596 1.895.596 1.07 0 1.75-.45.681-.45 1.004-1.18.335-.742.335-1.575 0-.832-.324-1.506a2.4 2.4 0 0 0-.98-1.069q-.67-.405-1.707-.404-.423 0-.87.078a4.3 4.3 0 0 0-.903.27 4.7 4.7 0 0 0-.925.529 5 5 0 0 0-.366.289c-.307.264-.813.234-.927-.154a1.24 1.24 0 0 1 0-.619q.07-.25.24-.587a.31.31 0 0 1 .294-.165.32.32 0 0 0 .248-.094q.345-.34.734-.604.457-.315.959-.529a5 5 0 0 1 1.06-.315 6 6 0 0 1 1.159-.112q1.438 0 2.509.607t1.65 1.698q.59 1.09.59 2.541 0 1.416-.602 2.676a4.9 4.9 0 0 1-1.795 2.035Q19.828 32 18 32"/></svg>