<svg width="16" height="16" viewBox="0 0 16 16" xmlns="http://www.w3.org/2000/svg"><path fill-rule="evenodd" clip-rule="evenodd" d="M12 2H4C2.89543 2 2 2.89543 2 4V12C2 13.1046 2.89543 14 4 14H12C13.1046 14 14 13.1046 14 12V4C14 2.89543 13.1046 2 12 2ZM4 0C1.79086 0 0 1.79086 0 4V12C0 14.2091 1.79086 16 4 16H12C14.2091 16 16 14.2091 16 12V4C16 1.79086 14.2091 0 12 0H4Z"/><mask id="path-2-inside-1_3339_15104"><path d="M11 6.99999H8.99999V5C8.99999 4.73478 8.89463 4.48043 8.7071 4.29289C8.51956 4.10536 8.26521 4 7.99999 4C7.73478 4 7.48042 4.10536 7.29289 4.29289C7.10535 4.48043 6.99999 4.73478 6.99999 5V6.99999H5C4.73478 6.99999 4.48043 7.10535 4.29289 7.29289C4.10536 7.48042 4 7.73478 4 7.99999C4 8.26521 4.10536 8.51956 4.29289 8.7071C4.48043 8.89463 4.73478 8.99999 5 8.99999H6.99999V11C6.99999 11.2652 7.10535 11.5196 7.29289 11.7071C7.48042 11.8946 7.73478 12 7.99999 12C8.26521 12 8.51956 11.8946 8.7071 11.7071C8.89463 11.5196 8.99999 11.2652 8.99999 11V8.99999H11C11.2652 8.99999 11.5196 8.89463 11.7071 8.7071C11.8946 8.51956 12 8.26521 12 7.99999C12 7.73478 11.8946 7.48042 11.7071 7.29289C11.5196 7.10535 11.2652 6.99999 11 6.99999Z"/></mask><path d="M11 6.99999H8.99999V5C8.99999 4.73478 8.89463 4.48043 8.7071 4.29289C8.51956 4.10536 8.26521 4 7.99999 4C7.73478 4 7.48042 4.10536 7.29289 4.29289C7.10535 4.48043 6.99999 4.73478 6.99999 5V6.99999H5C4.73478 6.99999 4.48043 7.10535 4.29289 7.29289C4.10536 7.48042 4 7.73478 4 7.99999C4 8.26521 4.10536 8.51956 4.29289 8.7071C4.48043 8.89463 4.73478 8.99999 5 8.99999H6.99999V11C6.99999 11.2652 7.10535 11.5196 7.29289 11.7071C7.48042 11.8946 7.73478 12 7.99999 12C8.26521 12 8.51956 11.8946 8.7071 11.7071C8.89463 11.5196 8.99999 11.2652 8.99999 11V8.99999H11C11.2652 8.99999 11.5196 8.89463 11.7071 8.7071C11.8946 8.51956 12 8.26521 12 7.99999C12 7.73478 11.8946 7.48042 11.7071 7.29289C11.5196 7.10535 11.2652 6.99999 11 6.99999Z"/><path d="M8.99999 6.99999H6.99999V8.99999H8.99999V6.99999ZM7.99999 4L7.99999 6L7.99999 4ZM6.99999 6.99999V8.99999H8.99999V6.99999H6.99999ZM6.99999 8.99999H8.99999V6.99999H6.99999V8.99999ZM8.99999 8.99999V6.99999H6.99999V8.99999H8.99999ZM11 4.99999H8.99999V8.99999H11V4.99999ZM11 6.99999V5H6.99999V6.99999H11ZM11 5C11 4.20435 10.6839 3.44129 10.1213 2.87868L7.29288 5.70711C7.10535 5.51957 6.99999 5.26521 6.99999 5H11ZM10.1213 2.87868C9.5587 2.31607 8.79564 2 7.99999 2L7.99999 6C7.73478 6 7.48042 5.89464 7.29288 5.70711L10.1213 2.87868ZM7.99999 2C7.20434 2 6.44128 2.31607 5.87867 2.87868L8.7071 5.70711C8.51956 5.89464 8.26521 6 7.99999 6L7.99999 2ZM5.87867 2.87868C5.31606 3.44129 4.99999 4.20435 4.99999 5H8.99999C8.99999 5.26521 8.89464 5.51957 8.7071 5.70711L5.87867 2.87868ZM4.99999 5V6.99999H8.99999V5H4.99999ZM6.99999 4.99999H5V8.99999H6.99999V4.99999ZM5 4.99999C4.20435 4.99999 3.44129 5.31606 2.87868 5.87867L5.70711 8.7071C5.51957 8.89464 5.26521 8.99999 5 8.99999V4.99999ZM2.87868 5.87867C2.31607 6.44128 2 7.20435 2 7.99999H6C6 8.26521 5.89464 8.51956 5.70711 8.7071L2.87868 5.87867ZM2 7.99999C2 8.79564 2.31607 9.5587 2.87868 10.1213L5.70711 7.29288C5.89464 7.48042 6 7.73478 6 7.99999H2ZM2.87868 10.1213C3.44129 10.6839 4.20435 11 5 11V6.99999C5.26521 6.99999 5.51957 7.10535 5.70711 7.29288L2.87868 10.1213ZM5 11H6.99999V6.99999H5V11ZM4.99999 8.99999V11H8.99999V8.99999H4.99999ZM4.99999 11C4.99999 11.7956 5.31606 12.5587 5.87867 13.1213L8.7071 10.2929C8.89464 10.4804 8.99999 10.7348 8.99999 11H4.99999ZM5.87867 13.1213C6.44128 13.6839 7.20434 14 7.99999 14V9.99998C8.26521 9.99998 8.51956 10.1053 8.7071 10.2929L5.87867 13.1213ZM7.99999 14C8.79564 14 9.5587 13.6839 10.1213 13.1213L7.29288 10.2929C7.48042 10.1053 7.73478 9.99998 7.99999 9.99998V14ZM10.1213 13.1213C10.6839 12.5587 11 11.7956 11 11H6.99999C6.99999 10.7348 7.10535 10.4804 7.29288 10.2929L10.1213 13.1213ZM11 11V8.99999H6.99999V11H11ZM8.99999 11H11V6.99999H8.99999V11ZM11 11C11.7956 11 12.5587 10.6839 13.1213 10.1213L10.2929 7.29288C10.4804 7.10535 10.7348 6.99999 11 6.99999V11ZM13.1213 10.1213C13.6839 9.5587 14 8.79564 14 7.99999H9.99998C9.99998 7.73478 10.1053 7.48042 10.2929 7.29288L13.1213 10.1213ZM14 7.99999C14 7.20435 13.6839 6.44128 13.1213 5.87867L10.2929 8.7071C10.1053 8.51956 9.99998 8.26521 9.99998 7.99999H14ZM13.1213 5.87867C12.5587 5.31606 11.7956 4.99999 11 4.99999V8.99999C10.7348 8.99999 10.4804 8.89464 10.2929 8.7071L13.1213 5.87867Z" mask="url(#path-2-inside-1_3339_15104)"/></svg>