<svg width="32" height="32" viewBox="0 0 32 32" xmlns="http://www.w3.org/2000/svg"><path d="M15.3679 24.13C14.5964 24.13 13.8786 24.13 13.2143 24.13C12.5571 24.13 11.9571 24.13 11.4143 24.13C10.8786 24.13 10.4071 24.13 10 24.13C10 23.2698 10 22.4358 10 21.6279C10 20.82 10 19.915 10 18.9126V13.482C10 12.4498 10 11.5185 10 10.6882C10 9.85792 10 9.00518 10 8.13C10.8643 8.13 11.8357 8.13 12.9143 8.13C13.9929 8.13 15.0821 8.13 16.1821 8.13C17.225 8.13 18.0964 8.21977 18.7964 8.39929C19.5036 8.57133 20.0643 8.82192 20.4786 9.15104C20.9 9.47269 21.2 9.85791 21.3786 10.3067C21.5643 10.7555 21.6571 11.2567 21.6571 11.8102C21.6571 12.4909 21.5357 13.0819 21.2929 13.583C21.05 14.0842 20.7179 14.4993 20.2964 14.8285C19.875 15.1501 19.4 15.382 18.8714 15.5241V15.8046C19.4786 15.9467 20.0179 16.1674 20.4893 16.4666C20.9679 16.7658 21.3393 17.1735 21.6036 17.6896C21.8679 18.2057 22 18.8565 22 19.6419C22 20.3151 21.8964 20.9285 21.6893 21.482C21.4893 22.0281 21.1393 22.4993 20.6393 22.8958C20.1464 23.2922 19.4714 23.5989 18.6143 23.8158C17.7571 24.0253 16.675 24.13 15.3679 24.13ZM13.4607 21.3586H15.6893C16.3036 21.3586 16.8071 21.2801 17.2 21.123C17.6 20.9659 17.8929 20.7378 18.0786 20.4386C18.2643 20.1394 18.3571 19.7691 18.3571 19.3278C18.3571 18.662 18.1429 18.1721 17.7143 17.8579C17.2857 17.5363 16.6679 17.3754 15.8607 17.3754H12.625V14.7836H15.7107C16.2321 14.7836 16.6643 14.6976 17.0071 14.5255C17.35 14.346 17.6036 14.1066 17.7679 13.8074C17.9393 13.5082 18.025 13.1604 18.025 12.7639C18.025 12.1431 17.85 11.6756 17.5 11.3614C17.15 11.0398 16.6179 10.879 15.9036 10.879H13.4607C13.4607 11.3951 13.4607 11.9224 13.4607 12.461C13.4607 12.9996 13.4607 13.6129 13.4607 14.3011V18.116C13.4607 18.7593 13.4607 19.339 13.4607 19.8551C13.4607 20.3638 13.4607 20.8649 13.4607 21.3586Z"/></svg>