<svg width="28" height="28" viewBox="0 0 28 28" xmlns="http://www.w3.org/2000/svg"><path fill-rule="evenodd" clip-rule="evenodd" d="M24 2H4C2.89543 2 2 2.89543 2 4V24C2 25.1046 2.89543 26 4 26H24C25.1046 26 26 25.1046 26 24V4C26 2.89543 25.1046 2 24 2ZM4 0C1.79086 0 0 1.79086 0 4V24C0 26.2091 1.79086 28 4 28H24C26.2091 28 28 26.2091 28 24V4C28 1.79086 26.2091 0 24 0H4Z"/><path d="M11.1661 20C10.712 20.0002 10.2764 19.8126 9.9555 19.4787L6.29537 15.6774C5.90154 15.2681 5.90154 14.6047 6.29537 14.1954C6.68933 13.7862 7.32794 13.7862 7.7219 14.1954L11.1661 17.7737L20.2781 8.30688C20.6721 7.89771 21.3107 7.89771 21.7046 8.30688C22.0985 8.71618 22.0985 9.37966 21.7046 9.78896L12.3768 19.4787C12.0559 19.8126 11.6203 20.0002 11.1661 20Z"/></svg>