<svg width="32" height="32" viewBox="0 0 32 32" xmlns="http://www.w3.org/2000/svg"><path d="M19.9159 24.13C19.9159 23.2399 19.9159 22.3834 19.9159 21.5606C19.9159 20.7378 19.9159 19.8327 19.9159 18.8453V13.482C19.9159 12.4722 19.9159 11.5522 19.9159 10.7219C19.9159 9.8841 19.9159 9.02014 19.9159 8.13H22C22 9.02014 22 9.8841 22 10.7219C22 11.5522 22 12.4722 22 13.482V18.8453C22 19.8327 22 20.7378 22 21.5606C22 22.3834 22 23.2399 22 24.13H19.9159ZM9 24.13C9 23.2399 9 22.3834 9 21.5606C9 20.7378 9 19.8327 9 18.8453V13.482C9 12.4722 9 11.5522 9 10.7219C9 9.8841 9 9.02014 9 8.13H11.0841C11.0841 9.02014 11.0841 9.8841 11.0841 10.7219C11.0841 11.5522 11.0841 12.4722 11.0841 13.482V18.8453C11.0841 19.8327 11.0841 20.7378 11.0841 21.5606C11.0841 22.3834 11.0841 23.2399 11.0841 24.13H9ZM10.3587 16.9042V15.1538H20.7104V16.9042H10.3587Z"/></svg>