<svg width="32" height="32" viewBox="0 0 32 32" xmlns="http://www.w3.org/2000/svg"><g clip-path="url(#clip0_1338_5970)"><path d="M17.8443 21.2669L14.5823 24.5289C13.6352 25.4507 12.3633 25.9625 11.0417 25.9536C9.72018 25.9448 8.45524 25.416 7.5206 24.4816C6.58596 23.5472 6.05678 22.2824 6.04755 20.9609C6.03833 19.6393 6.54979 18.3673 7.47129 17.4199L10.7333 14.1549C10.9208 13.9673 11.0261 13.7128 11.026 13.4476C11.0259 13.1823 10.9204 12.9279 10.7328 12.7404C10.5451 12.5529 10.2907 12.4476 10.0254 12.4477C9.76017 12.4478 9.5058 12.5533 9.31829 12.7409L6.05729 16.0059C4.73956 17.3243 3.99953 19.1122 4 20.9762C4.00047 22.8402 4.7414 24.6277 6.05979 25.9454C7.37818 27.2631 9.16604 28.0032 11.0301 28.0027C12.8941 28.0022 14.6816 27.2613 15.9993 25.9429L19.2613 22.6809C19.4434 22.4923 19.5442 22.2397 19.542 21.9775C19.5397 21.7153 19.4345 21.4645 19.2491 21.2791C19.0637 21.0937 18.8129 20.9885 18.5507 20.9862C18.2885 20.984 18.0359 21.0848 17.8473 21.2669H17.8443Z"/><path d="M25.9433 6.06139C25.2926 5.40621 24.5184 4.88667 23.6654 4.53289C22.8124 4.1791 21.8978 3.99811 20.9743 4.00039C20.0514 3.99794 19.1372 4.17847 18.2844 4.53154C17.4317 4.88462 16.6574 5.40323 16.0063 6.05739L12.7393 9.32039C12.5517 9.5079 12.4462 9.76227 12.4461 10.0275C12.4461 10.2928 12.5513 10.5473 12.7388 10.7349C12.9264 10.9225 13.1807 11.028 13.446 11.0281C13.7113 11.0282 13.9657 10.9229 14.1533 10.7354L17.4183 7.47339C17.8839 7.00504 18.4377 6.63369 19.0478 6.38085C19.6578 6.12801 20.312 5.99869 20.9723 6.00039C21.9666 6.00072 22.9385 6.29582 23.765 6.84839C24.5916 7.40096 25.2358 8.18619 25.6162 9.10481C25.9966 10.0234 26.096 11.0342 25.9021 12.0094C25.7081 12.9845 25.2293 13.8803 24.5264 14.5834L21.2643 17.8454C21.0767 18.033 20.9713 18.2875 20.9713 18.5529C20.9713 18.8183 21.0767 19.0728 21.2643 19.2604C21.452 19.448 21.7065 19.5534 21.9718 19.5534C22.2372 19.5534 22.4917 19.448 22.6793 19.2604L25.9413 16.0004C27.2574 14.6815 27.9967 12.8945 27.997 11.0313C27.9974 9.16812 27.2589 7.38082 25.9433 6.06139Z"/><path d="M18.2924 12.2931L12.2924 18.2931C12.1969 18.3853 12.1208 18.4956 12.0683 18.6177C12.0159 18.7397 11.9884 18.8709 11.9872 19.0037C11.986 19.1364 12.0113 19.2681 12.0616 19.391C12.1119 19.5139 12.1862 19.6256 12.2801 19.7194C12.3739 19.8133 12.4856 19.8876 12.6085 19.9379C12.7314 19.9882 12.8631 20.0135 12.9958 20.0123C13.1286 20.0112 13.2598 19.9836 13.3819 19.9312C13.5039 19.8787 13.6142 19.8026 13.7064 19.7071L19.7064 13.7071C19.8886 13.5185 19.9894 13.2659 19.9871 13.0037C19.9848 12.7415 19.8797 12.4907 19.6943 12.3053C19.5089 12.1198 19.258 12.0147 18.9959 12.0124C18.7337 12.0101 18.4811 12.1109 18.2924 12.2931Z"/></g><defs><clipPath id="clip0_1338_5970"><rect width="24" height="24" transform="translate(4 4)"/></clipPath></defs></svg>