<svg width="32" height="32" viewBox="0 0 32 32" xmlns="http://www.w3.org/2000/svg"><g clip-path="url(#clip0_1338_5106)"><path d="M11 10.0003H27C27.2652 10.0003 27.5196 9.89495 27.7071 9.70742C27.8947 9.51988 28 9.26553 28 9.00031C28 8.73509 27.8947 8.48074 27.7071 8.29321C27.5196 8.10567 27.2652 8.00031 27 8.00031H11C10.7348 8.00031 10.4804 8.10567 10.2929 8.29321C10.1054 8.48074 10 8.73509 10 9.00031C10 9.26553 10.1054 9.51988 10.2929 9.70742C10.4804 9.89495 10.7348 10.0003 11 10.0003Z"/><path d="M27 14.9997H11C10.7348 14.9997 10.4804 15.1051 10.2929 15.2926C10.1054 15.4801 10 15.7345 10 15.9997C10 16.2649 10.1054 16.5193 10.2929 16.7068C10.4804 16.8944 10.7348 16.9997 11 16.9997H27C27.2652 16.9997 27.5196 16.8944 27.7071 16.7068C27.8947 16.5193 28 16.2649 28 15.9997C28 15.7345 27.8947 15.4801 27.7071 15.2926C27.5196 15.1051 27.2652 14.9997 27 14.9997Z"/><path d="M27 22H11C10.7348 22 10.4804 22.1054 10.2929 22.2929C10.1054 22.4804 10 22.7348 10 23C10 23.2652 10.1054 23.5196 10.2929 23.7071C10.4804 23.8947 10.7348 24 11 24H27C27.2652 24 27.5196 23.8947 27.7071 23.7071C27.8947 23.5196 28 23.2652 28 23C28 22.7348 27.8947 22.4804 27.7071 22.2929C27.5196 22.1054 27.2652 22 27 22Z"/><path d="M6 11C7.10457 11 8 10.1046 8 9C8 7.89543 7.10457 7 6 7C4.89543 7 4 7.89543 4 9C4 10.1046 4.89543 11 6 11Z"/><path d="M6 18.0003C7.10457 18.0003 8 17.1049 8 16.0003C8 14.8957 7.10457 14.0003 6 14.0003C4.89543 14.0003 4 14.8957 4 16.0003C4 17.1049 4.89543 18.0003 6 18.0003Z"/><path d="M6 24.9997C7.10457 24.9997 8 24.1043 8 22.9997C8 21.8951 7.10457 20.9997 6 20.9997C4.89543 20.9997 4 21.8951 4 22.9997C4 24.1043 4.89543 24.9997 6 24.9997Z"/></g><defs><clipPath id="clip0_1338_5106"><rect width="24" height="24" transform="translate(4 4)"/></clipPath></defs></svg>