<svg width="24" height="24" viewBox="0 0 24 24" xmlns="http://www.w3.org/2000/svg"><g clip-path="url(#clip0_1338_5983)"><path d="M22.9366 1.06396C22.2542 0.382662 21.3294 0 20.3652 0C19.401 0 18.4762 0.382662 17.7938 1.06396L1.47037 17.3878C1.00292 17.8526 0.63228 18.4055 0.379897 19.0145C0.127514 19.6235 -0.00160382 20.2765 1.5036e-05 20.9358V22.9963C1.5036e-05 23.2625 0.105757 23.5178 0.293979 23.706C0.482201 23.8942 0.737485 24 1.00367 24H3.06418C3.72334 24.0018 4.37633 23.8729 4.98533 23.6207C5.59434 23.3685 6.14726 22.998 6.6121 22.5306L22.9366 6.2058C23.6175 5.52349 24 4.59888 24 3.63488C24 2.67088 23.6175 1.74627 22.9366 1.06396ZM5.19293 21.1114C4.62687 21.6737 3.86205 21.9903 3.06418 21.9926H2.00733V20.9358C2.00631 20.5402 2.08376 20.1484 2.23519 19.783C2.38663 19.4176 2.60903 19.0858 2.88954 18.807L15.2777 6.41858L17.5861 8.72703L5.19293 21.1114ZM21.5164 4.7866L19.0012 7.30281L16.6928 4.99938L19.209 2.48316C19.3606 2.33191 19.5404 2.212 19.7383 2.13028C19.9363 2.04855 20.1483 2.0066 20.3625 2.00684C20.5766 2.00707 20.7886 2.04948 20.9863 2.13163C21.184 2.21379 21.3636 2.33409 21.5149 2.48567C21.6661 2.63724 21.786 2.81713 21.8678 3.01504C21.9495 3.21296 21.9914 3.42503 21.9912 3.63916C21.991 3.85329 21.9486 4.06527 21.8664 4.26301C21.7842 4.46075 21.6639 4.64037 21.5124 4.79162L21.5164 4.7866Z"/></g><defs><clipPath id="clip0_1338_5983"><rect width="24" height="24"/></clipPath></defs></svg>