<svg xmlns="http://www.w3.org/2000/svg" width="48" height="48"><path d="M27.01 36a12.03 12.03 0 0 1-8.917-3.966 11.9 11.9 0 0 1-3.021-9.308 12.12 12.12 0 0 1 10.023-10.573 13.1 13.1 0 0 1 5.033.205 2.501 2.501 0 0 1 1.108 4.226c-4.562 4.166-4.166 10.643.807 14.41a2.5 2.5 0 0 1-.7 4.319A13.9 13.9 0 0 1 27.01 36m.076-21.999a11 11 0 0 0-1.677.127 10.1 10.1 0 0 0-8.347 8.8A9.92 9.92 0 0 0 19.58 30.7a10.48 10.48 0 0 0 11.096 2.73.5.5 0 0 0 .139-.857c-5.931-4.478-6.403-12.485-.949-17.448a.46.46 0 0 0 .128-.466.49.49 0 0 0-.356-.361 10.7 10.7 0 0 0-2.552-.297"/></svg>