<svg width="24" height="24" viewBox="0 0 24 24" xmlns="http://www.w3.org/2000/svg"><g clip-path="url(#clip0_1336_5005)"><path d="M21 4H17.9C17.6679 2.87141 17.0538 1.85735 16.1613 1.12872C15.2687 0.40009 14.1522 0.00145452 13 0H11C9.8478 0.00145452 8.73132 0.40009 7.83875 1.12872C6.94618 1.85735 6.3321 2.87141 6.1 4H3C2.73478 4 2.48043 4.10536 2.29289 4.29289C2.10536 4.48043 2 4.73478 2 5C2 5.26522 2.10536 5.51957 2.29289 5.70711C2.48043 5.89464 2.73478 6 3 6H4V19C4.00159 20.3256 4.52888 21.5964 5.46622 22.5338C6.40356 23.4711 7.67441 23.9984 9 24H15C16.3256 23.9984 17.5964 23.4711 18.5338 22.5338C19.4711 21.5964 19.9984 20.3256 20 19V6H21C21.2652 6 21.5196 5.89464 21.7071 5.70711C21.8946 5.51957 22 5.26522 22 5C22 4.73478 21.8946 4.48043 21.7071 4.29289C21.5196 4.10536 21.2652 4 21 4ZM11 2H13C13.6203 2.00076 14.2251 2.19338 14.7316 2.55144C15.2381 2.90951 15.6214 3.41549 15.829 4H8.171C8.37858 3.41549 8.7619 2.90951 9.26839 2.55144C9.77487 2.19338 10.3797 2.00076 11 2ZM18 19C18 19.7956 17.6839 20.5587 17.1213 21.1213C16.5587 21.6839 15.7956 22 15 22H9C8.20435 22 7.44129 21.6839 6.87868 21.1213C6.31607 20.5587 6 19.7956 6 19V6H18V19Z"/><path d="M10.0001 17.9994C10.2653 17.9994 10.5197 17.894 10.7072 17.7065C10.8947 17.5189 11.0001 17.2646 11.0001 16.9994V10.9994C11.0001 10.7342 10.8947 10.4798 10.7072 10.2923C10.5197 10.1047 10.2653 9.99938 10.0001 9.99938C9.73487 9.99938 9.48051 10.1047 9.29298 10.2923C9.10544 10.4798 9.00008 10.7342 9.00008 10.9994V16.9994C9.00008 17.2646 9.10544 17.5189 9.29298 17.7065C9.48051 17.894 9.73487 17.9994 10.0001 17.9994Z"/><path d="M13.9999 17.9994C14.2652 17.9994 14.5195 17.894 14.7071 17.7065C14.8946 17.5189 15 17.2646 15 16.9994V10.9994C15 10.7342 14.8946 10.4798 14.7071 10.2923C14.5195 10.1047 14.2652 9.99938 13.9999 9.99938C13.7347 9.99938 13.4804 10.1047 13.2928 10.2923C13.1053 10.4798 12.9999 10.7342 12.9999 10.9994V16.9994C12.9999 17.2646 13.1053 17.5189 13.2928 17.7065C13.4804 17.894 13.7347 17.9994 13.9999 17.9994Z"/></g><defs><clipPath id="clip0_1336_5005"><rect width="24" height="24"/></clipPath></defs></svg>