<svg width="116" height="40" viewBox="0 0 116 40" fill="none" xmlns="http://www.w3.org/2000/svg">
<path fill-rule="evenodd" clip-rule="evenodd" d="M7.10937 6C7.79972 6 8.35936 6.56982 8.35936 7.27273V8.31405H9.45311C10.1435 8.31405 10.7031 8.88386 10.7031 9.58677C10.7031 10.2897 10.1435 10.8595 9.45311 10.8595H5.93749C4.00248 10.8595 2.5 12.3984 2.5 14.2149V15.2562H12.9687C13.6591 15.2562 14.2187 15.826 14.2187 16.5289C14.2187 17.2318 13.6591 17.8016 12.9687 17.8016H2.5V28.0991C2.5 29.9156 4.00248 31.4545 5.93749 31.4545H17.6562C18.3466 31.4545 18.9062 32.0243 18.9062 32.7272C18.9062 33.4301 18.3466 34 17.6562 34H5.93749C2.69484 34 0 31.3947 0 28.0991V14.2149C0 10.9458 2.65167 8.35599 5.85937 8.31455V7.27273C5.85937 6.56982 6.41901 6 7.10937 6ZM15.6723 8.69327C16.0126 8.34183 16.5217 8.22235 16.9787 8.38668L39.1662 16.8141C39.7103 17.0097 40.0522 17.5592 39.9935 18.1437C39.9348 18.7281 39.4907 19.1958 38.919 19.2752L26.8587 20.9513L24.9391 32.9321C24.8477 33.5026 24.3903 33.9387 23.8252 33.9941C23.2602 34.0495 22.7294 33.7103 22.5328 33.1681L15.3899 10.0277C15.222 9.56473 15.332 9.0447 15.6723 8.69327ZM5.85937 24.6281C5.85937 23.9252 6.41901 23.3553 7.10937 23.3553H15.3125C16.0028 23.3553 16.5625 23.9252 16.5625 24.6281C16.5625 25.331 16.0028 25.9008 15.3125 25.9008H7.10937C6.41901 25.9008 5.85937 25.331 5.85937 24.6281Z" fill="#33B868"/>
<path d="M110.424 28C109.479 28 108.653 27.8482 107.945 27.5447C107.237 27.2411 106.643 26.8317 106.164 26.3163C105.692 25.794 105.338 25.201 105.102 24.5374C104.866 23.8668 104.748 23.1644 104.748 22.4302C104.748 21.3783 104.969 20.443 105.411 19.6241C105.854 18.7981 106.496 18.1487 107.337 17.6757C108.177 17.1957 109.192 16.9557 110.379 16.9557C111.287 16.9557 112.091 17.0933 112.791 17.3686C113.492 17.6439 114.078 18.0322 114.551 18.5334C115.03 19.0276 115.391 19.6064 115.635 20.27C115.878 20.9336 116 21.6537 116 22.4302C116 23.482 115.779 24.428 115.336 25.268C114.894 26.1081 114.252 26.7752 113.411 27.2694C112.577 27.7565 111.582 28 110.424 28ZM110.412 26.094C111.121 26.094 111.711 25.921 112.183 25.5751C112.655 25.2221 113.005 24.7668 113.234 24.2091C113.47 23.6514 113.588 23.0585 113.588 22.4302C113.588 21.7031 113.455 21.0748 113.19 20.5453C112.931 20.0088 112.563 19.5959 112.083 19.3064C111.611 19.0099 111.051 18.8617 110.401 18.8617C109.701 18.8617 109.107 19.0205 108.62 19.3382C108.141 19.6488 107.775 20.0759 107.525 20.6195C107.281 21.156 107.16 21.7595 107.16 22.4302C107.16 23.0585 107.278 23.6514 107.514 24.2091C107.757 24.7668 108.118 25.2221 108.598 25.5751C109.085 25.921 109.69 26.094 110.412 26.094Z" fill="black"/>
<path d="M100.936 27.7459C100.5 27.2799 100.061 26.8176 99.6189 26.3587C99.1837 25.8928 98.7485 25.4339 98.3133 24.9821L96.6536 23.2349H95.857V21.6678H96.7421L98.1584 20.1006C98.5936 19.6206 99.0288 19.1405 99.464 18.6605C99.8992 18.1734 100.331 17.6934 100.758 17.2204H103.591C102.993 17.8416 102.4 18.4628 101.81 19.084C101.22 19.7053 100.633 20.3265 100.05 20.9477L98.2911 22.7796L98.2026 21.7313L100.283 23.9868C100.888 24.615 101.496 25.2433 102.108 25.8716C102.721 26.4999 103.325 27.1246 103.923 27.7459H100.936ZM93.7326 27.7459C93.7326 26.9764 93.7326 26.2316 93.7326 25.5116C93.7326 24.7915 93.7326 23.9974 93.7326 23.1291V17.2945C93.7326 16.4121 93.7326 15.5544 93.7326 14.7214C93.7326 13.8813 93.7326 13.0554 93.7326 12.2435L96.1004 12C96.1004 12.8401 96.1004 13.6942 96.1004 14.5625C96.1004 15.4308 96.1004 16.3415 96.1004 17.2945V23.5314C96.1004 24.2938 96.1004 25.0068 96.1004 25.6704C96.1004 26.334 96.1004 27.0258 96.1004 27.7459H93.7326Z" fill="black"/>
<path d="M87.2298 27.9894C85.88 27.9894 84.7698 27.7494 83.8994 27.2694C83.029 26.7893 82.3836 26.1328 81.9632 25.2998C81.5501 24.4668 81.3436 23.5103 81.3436 22.4302C81.3436 21.3642 81.5427 20.4183 81.9411 19.5923C82.3467 18.7664 82.9368 18.124 83.7114 17.6651C84.4859 17.1992 85.4226 16.9663 86.5217 16.9663C87.4732 16.9663 88.292 17.1392 88.978 17.4851C89.664 17.824 90.1914 18.3322 90.5602 19.0099C90.929 19.6876 91.1134 20.5277 91.1134 21.5301C91.1134 21.7984 91.106 22.0419 91.0913 22.2608C91.0839 22.4725 91.0618 22.6843 91.0249 22.8961L88.9559 22.0278C88.9706 21.9219 88.9817 21.8195 88.9891 21.7207C88.9964 21.6148 89.0001 21.516 89.0001 21.4242C89.0001 20.5559 88.7715 19.8853 88.3141 19.4123C87.8642 18.9323 87.2741 18.6923 86.5438 18.6923C85.9759 18.6923 85.4817 18.8405 85.0612 19.137C84.6408 19.4335 84.3125 19.8394 84.0765 20.3547C83.8478 20.8701 83.7335 21.4631 83.7335 22.1337V22.4725C83.7335 23.2208 83.8663 23.8632 84.1318 24.3997C84.4047 24.9362 84.8178 25.3492 85.371 25.6387C85.9316 25.9281 86.636 26.0728 87.4843 26.0728C87.8089 26.0728 88.1629 26.0481 88.5465 25.9987C88.9374 25.9422 89.3284 25.8575 89.7193 25.7445C90.1103 25.6316 90.4791 25.4869 90.8258 25.3104L90.9143 27.28C90.634 27.4211 90.3057 27.5447 89.9295 27.6506C89.5533 27.7565 89.1366 27.8376 88.6793 27.8941C88.2293 27.9576 87.7462 27.9894 87.2298 27.9894ZM82.2951 22.8961V21.3501L89.6087 21.2654L91.0249 21.8266V22.8961H82.2951Z" fill="black"/>
<path d="M75.5607 27.9894C74.2109 27.9894 73.1007 27.7494 72.2303 27.2694C71.3599 26.7893 70.7145 26.1328 70.2941 25.2998C69.881 24.4668 69.6745 23.5103 69.6745 22.4302C69.6745 21.3642 69.8736 20.4183 70.2719 19.5923C70.6776 18.7664 71.2677 18.124 72.0422 17.6651C72.8168 17.1992 73.7535 16.9663 74.8526 16.9663C75.8041 16.9663 76.6229 17.1392 77.3089 17.4851C77.9949 17.824 78.5223 18.3322 78.8911 19.0099C79.2599 19.6876 79.4443 20.5277 79.4443 21.5301C79.4443 21.7984 79.4369 22.0419 79.4222 22.2608C79.4148 22.4725 79.3927 22.6843 79.3558 22.8961L77.2868 22.0278C77.3015 21.9219 77.3126 21.8195 77.32 21.7207C77.3273 21.6148 77.331 21.516 77.331 21.4242C77.331 20.5559 77.1024 19.8853 76.645 19.4123C76.1951 18.9323 75.605 18.6923 74.8747 18.6923C74.3068 18.6923 73.8125 18.8405 73.3921 19.137C72.9717 19.4335 72.6434 19.8394 72.4074 20.3547C72.1787 20.8701 72.0644 21.4631 72.0644 22.1337V22.4725C72.0644 23.2208 72.1971 23.8632 72.4627 24.3997C72.7356 24.9362 73.1487 25.3492 73.7019 25.6387C74.2625 25.9281 74.9669 26.0728 75.8152 26.0728C76.1398 26.0728 76.4938 26.0481 76.8774 25.9987C77.2683 25.9422 77.6593 25.8575 78.0502 25.7445C78.4411 25.6316 78.81 25.4869 79.1566 25.3104L79.2452 27.28C78.9649 27.4211 78.6366 27.5447 78.2604 27.6506C77.8842 27.7565 77.4675 27.8376 77.0102 27.8941C76.5602 27.9576 76.0771 27.9894 75.5607 27.9894ZM70.626 22.8961V21.3501L77.9396 21.2654L79.3558 21.8266V22.8961H70.626Z" fill="black"/>
<path d="M52.4147 27.7459C52.2008 26.9976 51.9684 26.1963 51.7176 25.3422C51.4668 24.488 51.2345 23.6973 51.0206 22.9702L49.6375 18.2369C49.3941 17.3969 49.1249 16.4756 48.8298 15.4732C48.5348 14.4708 48.2582 13.5283 48 12.6459H50.9099C51.1755 13.6695 51.4558 14.7461 51.7508 15.8756C52.0459 17.0051 52.3225 18.0816 52.5807 19.1052L54.0633 24.8021H54.2846L55.7451 19.0311C55.9147 18.3746 56.0918 17.6792 56.2762 16.9451C56.4606 16.2109 56.645 15.4767 56.8294 14.7426C57.0212 14.0084 57.2019 13.3095 57.3715 12.6459H60.2593C60.5249 13.6695 60.8015 14.7355 61.0892 15.8438C61.3768 16.9521 61.6571 18.0216 61.9301 19.0523L63.4237 24.8021H63.645L65.1387 19.0205C65.3969 18.0251 65.6698 16.9627 65.9575 15.8332C66.2525 14.7037 66.5292 13.6413 66.7873 12.6459H69.6862C69.428 13.5425 69.1514 14.4849 68.8564 15.4732C68.5687 16.4615 68.2995 17.3722 68.0487 18.2052L66.6435 22.9702C66.4148 23.7256 66.1751 24.5303 65.9243 25.3845C65.6809 26.2316 65.4485 27.0187 65.2272 27.7459H61.9854C61.7198 26.7787 61.4395 25.7622 61.1445 24.6962C60.8568 23.6232 60.5839 22.6137 60.3257 21.6678L58.832 16.1721H58.6107L57.1502 21.6678C56.8995 22.6137 56.6302 23.6267 56.3425 24.7068C56.0549 25.7798 55.7819 26.7928 55.5238 27.7459H52.4147Z" fill="black"/>
</svg>
